# xmcd
#
# Track frame offsets: 
#        150
#        49683
#        82228
#        107428
#        127520
#        174380
#        209198
#        242125
#        262088
#        325468
#
# Disc length: 4710 seconds
#
# Revision: 1
# Processed by: cddbd v1.5.2PL0 Copyright (c) Steve Scherf et al.
# Submitted via: ExactAudioCopyFreeDBPlugin 1.0
#
DISCID=8e12640a
DTITLE=Warm Dust - And It Came To Pass
DYEAR=1970
DGENRE=Rock
TTITLE0=Turbulance
TTITLE1=Achromasia
TTITLE2=Circus
TTITLE3=Keep On Trucking
TTITLE4=And It Came To Pass
TTITLE5=Loosing Touch
TTITLE6=Blues For Pete
TTITLE7=Man Without a Straw
TTITLE8=Wash My Eyes
TTITLE9=Indian Rope Man
EXTD=red fox cd cat num rf 610
EXTT0=
EXTT1=
EXTT2=
EXTT3=
EXTT4=
EXTT5=
EXTT6=
EXTT7=
EXTT8=
EXTT9=
PLAYORDER=
